<svg xmlns="http://www.w3.org/2000/svg" viewBox="0 0 2048 1280"><defs><style>.cls-1{fill:#071013;}.cls-2{fill:#ef7b45;}.cls-3{fill:#1a936f;}.cls-4{fill:#726da8;}</style></defs><g id="Layer_2" data-name="Layer 2"><path class="cls-1" d="M284.56,591.62V306.86a6.15,6.15,0,0,1,6.15-6.15H473a6.15,6.15,0,0,1,6.15,6.15V336a6.15,6.15,0,0,1-6.15,6.15H340.15a6.15,6.15,0,0,0-6.15,6.15v73.65a6.15,6.15,0,0,0,6.15,6.15H454.33a6.15,6.15,0,0,1,6.15,6.15V463.8a6.15,6.15,0,0,1-6.15,6.15H339.7a6.15,6.15,0,0,0-6.15,6.15v74.1a6.16,6.16,0,0,0,6.15,6.15H473a6.15,6.15,0,0,1,6.15,6.15v29.12a6.16,6.16,0,0,1-6.15,6.15H290.71A6.16,6.16,0,0,1,284.56,591.62Z"/><path class="cls-1" d="M797.64,973.15V688.4a6.15,6.15,0,0,1,6.15-6.15H982.11a6.15,6.15,0,0,1,6.15,6.15v29.12a6.16,6.16,0,0,1-6.15,6.15H852.78a6.15,6.15,0,0,0-6.15,6.15v76.32a6.15,6.15,0,0,0,6.15,6.15H964.29a6.15,6.15,0,0,1,6.15,6.15V848a6.15,6.15,0,0,1-6.15,6.15H852.78a6.15,6.15,0,0,0-6.15,6.15V973.15a6.15,6.15,0,0,1-6.15,6.15H803.79A6.15,6.15,0,0,1,797.64,973.15Z"/><path class="cls-1" d="M1240.55,979.3H1279a6.14,6.14,0,0,0,5.75-8.33l-108-284.75a6.14,6.14,0,0,0-5.75-4h-43.66a6.14,6.14,0,0,0-5.73,3.92l-111,284.75a6.15,6.15,0,0,0,5.73,8.38H1052a6.14,6.14,0,0,0,5.78-4.06l26.2-72.49a6.17,6.17,0,0,1,5.79-4.06h112.84a6.15,6.15,0,0,1,5.78,4l26.38,72.52A6.14,6.14,0,0,0,1240.55,979.3ZM1102.91,850.37l37.31-103.22a6.15,6.15,0,0,1,11.56,0l37.55,103.22a6.15,6.15,0,0,1-5.78,8.25H1108.7A6.16,6.16,0,0,1,1102.91,850.37Z"/><path class="cls-1" d="M1372.91,973.15V688.4a6.15,6.15,0,0,1,6.15-6.15h37.13a6.15,6.15,0,0,1,6.15,6.15V973.15a6.15,6.15,0,0,1-6.15,6.15h-37.13A6.15,6.15,0,0,1,1372.91,973.15Z"/><path class="cls-1" d="M1758.41,969.77l-68.55-103.86a6.16,6.16,0,0,1,3.26-9.24,76.54,76.54,0,0,0,20.37-10.08,81.15,81.15,0,0,0,27.16-32.07,97.87,97.87,0,0,0,9.36-42.75q0-44.53-24.72-67t-71-22.49H1528.58a6.15,6.15,0,0,0-6.15,6.15V973.15a6.15,6.15,0,0,0,6.15,6.15h36.69a6.15,6.15,0,0,0,6.15-6.15V873.22a6.15,6.15,0,0,1,6.15-6.15h53.25a6.14,6.14,0,0,1,5.23,2.92l65.84,106.4a6.15,6.15,0,0,0,5.23,2.91h46.16A6.14,6.14,0,0,0,1758.41,969.77Zm-187-239.95a6.15,6.15,0,0,1,6.15-6.15h70.9q27.6,0,39,13.36t11.36,37.85q0,26.29-14.47,39.2T1640.45,827h-62.88a6.15,6.15,0,0,1-6.15-6.15Z"/><path class="cls-1" d="M544.82,591.62V306.86a6.15,6.15,0,0,1,6.15-6.15H733.29a6.15,6.15,0,0,1,6.15,6.15V336a6.15,6.15,0,0,1-6.15,6.15H600.41a6.15,6.15,0,0,0-6.15,6.15v73.65a6.15,6.15,0,0,0,6.15,6.15H714.59a6.15,6.15,0,0,1,6.15,6.15V463.8a6.15,6.15,0,0,1-6.15,6.15H600a6.15,6.15,0,0,0-6.15,6.15v74.1a6.15,6.15,0,0,0,6.15,6.15H733.29a6.15,6.15,0,0,1,6.15,6.15v29.12a6.15,6.15,0,0,1-6.15,6.15H551A6.15,6.15,0,0,1,544.82,591.62Z"/><path class="cls-1" d="M891.17,602.67A278.51,278.51,0,0,1,852,600.22a141.17,141.17,0,0,1-30.73-7.8q-12.22-4.73-25.14-11.2a6.14,6.14,0,0,1-3.37-5.49V542.5a6.14,6.14,0,0,1,9.46-5.18,157.41,157.41,0,0,0,32.63,15.91,155.8,155.8,0,0,0,53.22,8.91q27.62,0,41.2-11.36t13.58-31.4q0-15.58-10-25.16T906.31,478q-16.48-6.68-35.18-13.36-14.26-5.34-28.06-11.35a105.35,105.35,0,0,1-24.94-15.15,65.66,65.66,0,0,1-17.82-23.38q-6.67-14.25-6.68-35.18a83.17,83.17,0,0,1,5.79-29.84A80.76,80.76,0,0,1,817,322.31q11.79-12.24,31.17-19.59t46.54-7.35a188.26,188.26,0,0,1,30.95,2.22,123.77,123.77,0,0,1,24.94,6.91q10.27,4.06,22.08,9.66a6.16,6.16,0,0,1,3.53,5.56v33.19a6.14,6.14,0,0,1-9.29,5.28q-6.56-3.94-13.2-7.6A127.24,127.24,0,0,0,929,340.35a114.74,114.74,0,0,0-29.84-4.46q-18.7-.43-30.73,4.46t-18.26,13.8A34.85,34.85,0,0,0,844,374.64q0,15.6,7.79,24.72t22,15.14q14.25,6,33,11.8,16.49,5.35,32.07,12a119.65,119.65,0,0,1,27.61,16.25,72.57,72.57,0,0,1,19.38,23.83q7.35,14.26,7.34,35.18A93.38,93.38,0,0,1,982.69,557q-10.47,20.26-33,33T891.17,602.67Z"/><path class="cls-1" d="M1123.16,591.62V348.28a6.15,6.15,0,0,0-6.15-6.15h-83.9A6.14,6.14,0,0,1,1027,336V306.86a6.14,6.14,0,0,1,6.14-6.15H1262.2a6.15,6.15,0,0,1,6.15,6.15V336a6.15,6.15,0,0,1-6.15,6.15h-83.9a6.15,6.15,0,0,0-6.15,6.15V591.62a6.15,6.15,0,0,1-6.15,6.15h-36.69A6.16,6.16,0,0,1,1123.16,591.62Z"/><path class="cls-1" d="M1300.35,591.62V306.86a6.15,6.15,0,0,1,6.15-6.15h182.32a6.15,6.15,0,0,1,6.15,6.15V336a6.15,6.15,0,0,1-6.15,6.15H1355.93a6.14,6.14,0,0,0-6.14,6.15v73.65a6.14,6.14,0,0,0,6.14,6.15h114.19a6.15,6.15,0,0,1,6.15,6.15V463.8a6.15,6.15,0,0,1-6.15,6.15H1355.49a6.15,6.15,0,0,0-6.15,6.15v74.1a6.15,6.15,0,0,0,6.15,6.15h133.33a6.15,6.15,0,0,1,6.15,6.15v29.12a6.15,6.15,0,0,1-6.15,6.15H1306.5A6.15,6.15,0,0,1,1300.35,591.62Z"/><path class="cls-1" d="M1667.25,602.22q-69.93,0-105.55-37.86T1526.07,449q0-76.17,35.18-114.68t106-38.53a195.31,195.31,0,0,1,47,5.79A244.1,244.1,0,0,1,1755.85,316a6.1,6.1,0,0,1,3.59,5.59v29.66a6.16,6.16,0,0,1-9.06,5.42A173.38,173.38,0,0,0,1716,342.8a158.06,158.06,0,0,0-42.53-6q-32.51,0-54.11,11.57t-32.06,36.08q-10.47,24.49-10.47,65,0,39.65,10.69,64.36t32.29,36.07q21.59,11.36,55,11.36a152.68,152.68,0,0,0,41.42-6,184.25,184.25,0,0,0,34.21-13.61,6.16,6.16,0,0,1,9,5.46V577a6.17,6.17,0,0,1-3.56,5.58,198.86,198.86,0,0,1-25.39,9.85,212.78,212.78,0,0,1-31.62,7.35A209.57,209.57,0,0,1,1667.25,602.22Z"/><circle class="cls-2" cx="440.52" cy="737.87" r="57.07"/><circle class="cls-3" cx="625.21" cy="737.87" r="57.07"/><circle class="cls-4" cx="625.21" cy="922.56" r="57.07"/></g></svg>